<?xml version="1.0" encoding="utf-8"?>
<!-- Generator: Adobe Illustrator 16.0.3, SVG Export Plug-In . SVG Version: 6.00 Build 0)  -->
<!DOCTYPE svg PUBLIC "-//W3C//DTD SVG 1.1//EN" "http://www.w3.org/Graphics/SVG/1.1/DTD/svg11.dtd">
<svg version="1.1" id="Layer_1" xmlns="http://www.w3.org/2000/svg" xmlns:xlink="http://www.w3.org/1999/xlink" x="0px" y="0px"
	 width="2000px" height="2000px" viewBox="0 0 2000 2000" enable-background="new 0 0 2000 2000" xml:space="preserve">
<rect x="-50.785" y="-41.785" fill="#202529" stroke="#000000" stroke-miterlimit="10" width="2100.21" height="2118.212"/>
<g>
	<polygon fill="#FCD088" points="2000,1000 1789.4,1180.271 1901.133,1434.023 1632.98,1504.695 1623.548,1781.828 
		1351.257,1729.576 1222.495,1975.138 1000,1809.523 777.505,1975.138 648.743,1729.576 376.452,1781.828 367.015,1504.695 
		98.867,1434.02 210.6,1180.276 0,1000 210.6,819.729 98.867,565.977 367.02,495.305 376.452,218.171 648.743,270.424 
		777.505,24.862 1000,190.476 1222.49,24.862 1351.257,270.424 1623.548,218.171 1632.986,495.305 1901.133,565.98 1789.4,819.724 	
		"/>
	<circle fill="#DDAE76" cx="1000" cy="1000" r="666.667"/>
</g>
</svg>
